<?xml version="1.0" encoding="UTF-8"?>
<!DOCTYPE svg PUBLIC "-//W3C//DTD SVG 1.1//EN" "http://www.w3.org/Graphics/SVG/1.1/DTD/svg11.dtd">
<!-- Creator: CorelDRAW 2021 (64-Bit) -->
<svg xmlns="http://www.w3.org/2000/svg" xml:space="preserve" width="6.82666in" height="3.84in" version="1.1" style="shape-rendering:geometricPrecision; text-rendering:geometricPrecision; image-rendering:optimizeQuality; fill-rule:evenodd; clip-rule:evenodd"
viewBox="0 0 6826.66 3840"
 xmlns:xlink="http://www.w3.org/1999/xlink"
 xmlns:xodm="http://www.corel.com/coreldraw/odm/2003">
 <defs>
  <style type="text/css">
   <![CDATA[
    .fil1 {fill:#0398B8}
    .fil2 {fill:#FDAE09}
    .fil0 {fill:#0398B8;fill-rule:nonzero}
   ]]>
  </style>
 </defs>
 <g id="Layer_x0020_1">
  <metadata id="CorelCorpID_0Corel-Layer"/>
  <g id="_2627267886144">
   <path class="fil0" d="M2396.3 2161.77c-58.7,0 -109.91,-9.73 -153.63,-29.2 -43.72,-19.46 -79.81,-45.67 -108.26,-78.61 -28.45,-32.94 -49.56,-69.48 -63.34,-109.61 -13.78,-40.13 -20.67,-80.26 -20.67,-120.39l0 -19.77c0,-41.33 6.89,-81.76 20.67,-121.28 13.78,-39.53 34.59,-75.47 62.44,-107.81 27.85,-32.34 62.59,-58.1 104.22,-77.26 41.63,-19.17 89.69,-28.75 144.19,-28.75 59.3,0 111.7,10.93 157.22,32.79 45.52,21.86 82.06,52.11 109.61,90.74 27.55,38.63 43.42,83.4 47.61,134.31l-147.34 0c-3.59,-23.96 -13.03,-44.92 -28.3,-62.89 -15.28,-17.97 -34.74,-32.04 -58.4,-42.23 -23.66,-10.18 -50.46,-15.27 -80.41,-15.27 -28.75,0 -54.35,5.09 -76.81,15.27 -22.46,10.19 -41.63,24.56 -57.5,43.13 -15.87,18.57 -27.85,40.58 -35.94,66.03 -8.09,25.46 -12.13,53.46 -12.13,84 0,31.74 4.34,60.64 13.03,86.7 8.69,26.05 21.41,48.51 38.18,67.38 16.77,18.87 37.59,33.39 62.44,43.57 24.86,10.18 52.56,15.27 83.1,15.27 40.73,0 76.07,-8.38 106.02,-25.15 29.94,-16.77 51.51,-38.93 64.69,-66.48l-17.97 100.62 0 -156.32 135.66 0 0 140.15c-28.15,45.52 -66.93,80.41 -116.35,104.67 -49.41,24.26 -106.76,36.39 -172.05,36.39zm-18.87 -252.46l0 -106.01 361.16 0 0 106.01 -361.16 0z"/>
   <path id="_1" class="fil0" d="M3051.24 2161.77c-41.93,0 -78.91,-7.19 -110.96,-21.56 -32.04,-14.37 -58.69,-33.69 -79.96,-57.95 -21.26,-24.26 -37.43,-51.51 -48.52,-81.76 -11.08,-30.24 -16.62,-61.24 -16.62,-92.98l0 -17.97c0,-32.94 5.54,-64.54 16.62,-94.78 11.08,-30.24 27.1,-57.35 48.07,-81.31 20.96,-23.96 47.17,-42.97 78.61,-57.05 31.44,-14.07 67.23,-21.11 107.36,-21.11 52.7,0 97.18,11.83 133.41,35.49 36.24,23.66 63.94,54.5 83.1,92.54 19.17,38.04 28.75,79.51 28.75,124.43l0 48.51 -435.73 0 0 -81.76 348.58 0 -46.72 37.74c0,-29.35 -4.19,-54.5 -12.58,-75.47 -8.39,-20.96 -20.81,-36.98 -37.28,-48.06 -16.47,-11.08 -36.98,-16.62 -61.54,-16.62 -25.16,0 -46.42,5.69 -63.79,17.07 -17.37,11.38 -30.55,28 -39.53,49.86 -8.98,21.86 -13.48,48.66 -13.48,80.41 0,29.35 4.19,54.95 12.58,76.81 8.39,21.86 21.56,38.78 39.53,50.76 17.97,11.98 41.33,17.97 70.08,17.97 26.35,0 47.91,-5.09 64.69,-15.27 16.77,-10.18 28.15,-22.76 34.14,-37.73l132.07 0c-7.19,32.94 -21.26,62.29 -42.22,88.04 -20.96,25.75 -47.31,45.82 -79.06,60.19 -31.74,14.37 -68.28,21.56 -109.61,21.56z"/>
   <path id="_2" class="fil0" d="M3386.35 2144.7l0 -492.33 114.1 0 0 211.13 -8.08 0c0,-50.31 6.44,-92.24 19.31,-125.78 12.88,-33.54 32.49,-58.7 58.85,-75.47 26.35,-16.77 58.4,-25.15 96.13,-25.15l6.29 0c57.5,0 101.37,18.72 131.62,56.15 30.25,37.43 45.37,94.19 45.37,170.25l0 281.2 -143.74 0 0 -289.29c0,-26.35 -7.79,-47.92 -23.36,-64.69 -15.57,-16.77 -36.54,-25.15 -62.89,-25.15 -26.95,0 -48.67,8.54 -65.14,25.6 -16.47,17.07 -24.7,39.38 -24.7,66.93l0 286.59 -143.75 0z"/>
   <path id="_3" class="fil0" d="M3995.48 2144.7l0 -492.33 143.74 0.9 0 491.43 -143.74 0zm-65.59 -386.32l0 -106.01 209.33 0.9 0 105.11 -209.33 0zm121.29 -154.53c-26.95,0 -46.87,-7.04 -59.74,-21.11 -12.88,-14.07 -19.32,-31.89 -19.32,-53.46 0,-22.16 6.44,-40.13 19.32,-53.91 12.87,-13.78 32.79,-20.96 59.74,-21.56 26.95,0 46.87,7.04 59.74,21.11 12.88,14.07 19.02,32.19 18.42,54.35 0.6,21.56 -5.54,39.38 -18.42,53.46 -12.88,14.07 -32.79,21.11 -59.74,21.11z"/>
   <path id="_4" class="fil0" d="M4512.06 2161.77c-43.12,0 -81.46,-6.74 -115,-20.22 -33.54,-13.48 -61.84,-31.89 -84.9,-55.25 -23.06,-23.36 -40.58,-50.16 -52.56,-80.41 -11.98,-30.25 -17.97,-62.14 -17.97,-95.68l0 -20.67c0,-34.14 6.14,-66.63 18.42,-97.48 12.28,-30.85 30.24,-57.95 53.91,-81.31 23.66,-23.36 52.26,-41.78 85.8,-55.25 33.54,-13.48 70.98,-20.22 112.3,-20.22 42.52,0 80.41,6.74 113.65,20.22 33.24,13.48 61.54,31.89 84.9,55.25 23.36,23.36 41.33,50.46 53.9,81.31 12.58,30.84 18.87,63.34 18.87,97.48l0 20.67c0,33.54 -5.99,65.43 -17.96,95.68 -11.98,30.24 -29.5,57.05 -52.56,80.41 -23.06,23.36 -51.36,41.78 -84.9,55.25 -33.54,13.48 -72.17,20.22 -115.89,20.22zm0 -121.29c28.15,0 51.51,-5.99 70.07,-17.97 18.57,-11.98 32.8,-28.75 42.68,-50.31 9.88,-21.56 14.82,-45.52 14.82,-71.87 0,-28.15 -5.09,-52.85 -15.27,-74.12 -10.19,-21.26 -24.71,-38.18 -43.57,-50.76 -18.87,-12.58 -41.78,-18.87 -68.73,-18.87 -26.35,0 -49.11,6.29 -68.28,18.87 -19.17,12.58 -33.69,29.5 -43.57,50.76 -9.88,21.26 -14.82,45.97 -14.82,74.12 0,26.35 4.79,50.31 14.37,71.87 9.58,21.56 23.96,38.33 43.13,50.31 19.17,11.98 42.22,17.97 69.18,17.97z"/>
   <path id="_5" class="fil0" d="M4983.73 1916.5l0 -77.26 146.44 0c31.15,0 56.9,-6.14 77.26,-18.42 20.37,-12.28 35.79,-28.9 46.27,-49.86 10.48,-20.96 15.72,-44.32 15.72,-70.07 0,-26.35 -5.24,-50.01 -15.72,-70.98 -10.48,-20.96 -25.9,-37.43 -46.27,-49.41 -20.36,-11.98 -46.12,-17.97 -77.26,-17.97l-146.44 0 0 -77.26 130.27 0c53.91,0 98.98,8.54 135.21,25.61 36.24,17.07 63.64,41.18 82.2,72.32 18.57,31.15 27.85,67.98 27.85,110.5l0 14.37c0,41.93 -9.28,78.61 -27.85,110.06 -18.57,31.44 -45.97,55.7 -82.2,72.77 -36.23,17.07 -81.3,25.61 -135.21,25.61l-130.27 0zm-70.07 228.2l0 -659.44 88.04 0 0 659.44 -88.04 0z"/>
   <path id="_6" class="fil0" d="M5760.86 2144.7l0 -143.75 -14.37 0 0 -166.2c0,-32.94 -8.54,-57.8 -25.61,-74.57 -17.07,-16.77 -42.07,-25.16 -75.02,-25.16 -18.57,0 -37.74,0.3 -57.5,0.9 -19.76,0.6 -38.63,1.2 -56.6,1.8 -17.97,0.6 -33.54,1.5 -46.72,2.69l0 -75.46c13.18,-1.2 27.1,-2.25 41.78,-3.15 14.68,-0.9 29.8,-1.5 45.37,-1.8 15.57,-0.3 30.55,-0.45 44.92,-0.45 49.11,0 89.24,5.84 120.39,17.52 31.14,11.68 54.2,30.7 69.18,57.05 14.97,26.35 22.46,61.99 22.46,106.91l0 303.67 -68.28 0zm-157.22 12.58c-35.94,0 -66.93,-6.14 -92.98,-18.42 -26.06,-12.28 -46.12,-30.1 -60.19,-53.46 -14.07,-23.36 -21.11,-51.51 -21.11,-84.45 0,-34.14 7.64,-62.59 22.91,-85.35 15.27,-22.76 37.58,-39.98 66.93,-51.66 29.35,-11.68 64.69,-17.52 106.01,-17.52l130.27 0 0 64.69 -133.87 0c-34.74,0 -61.39,8.39 -79.96,25.15 -18.57,16.77 -27.85,38.33 -27.85,64.69 0,26.35 9.28,47.62 27.85,63.79 18.57,16.17 45.22,24.26 79.96,24.26 20.37,0 39.83,-3.74 58.4,-11.23 18.57,-7.48 33.99,-20.06 46.27,-37.73 12.28,-17.67 19.02,-42.07 20.22,-73.22l23.36 34.14c-3,34.14 -11.23,62.74 -24.71,85.8 -13.48,23.06 -32.04,40.58 -55.7,52.56 -23.66,11.98 -52.26,17.97 -85.8,17.97z"/>
   <path id="_7" class="fil0" d="M5953.12 2331.57l0 -77.26 69.18 0c20.37,0 37.58,-2.55 51.66,-7.64 14.07,-5.09 25.75,-13.63 35.04,-25.6 9.28,-11.98 16.92,-27.85 22.91,-47.62l150.93 -508.5 84.45 0 -159.92 530.96c-9.58,31.74 -23.06,57.65 -40.43,77.71 -17.37,20.07 -38.48,34.74 -63.34,44.02 -24.85,9.28 -53.76,13.93 -86.7,13.93l-63.79 0zm146.44 -197.65l0 -71.87 104.22 0 0 71.87 -104.22 0zm-8.98 0l-171.59 -468.97 88.04 0 164.41 468.97 -80.86 0z"/>
   <path class="fil1" d="M1117.88 1261.49c297.66,0 549.15,197.51 630.67,468.61l-188.57 0c-73.65,-171.24 -243.85,-291.16 -442.09,-291.16 -261.01,0 -473.45,207.88 -480.84,467.1l-3.57 459.94c-108.07,-117.3 -174.09,-273.92 -174.09,-445.99 0,-363.69 294.82,-658.51 658.51,-658.51zm-387.62 647.74c8.63,-210.35 189.16,-383.93 387.62,-383.93 198.46,0 339.34,126.53 382.63,297.53 88.99,0 178.86,0.9 268.85,0.9 4.61,31.42 7.03,63.56 7.03,96.26 0,363.69 -294.82,658.51 -658.51,658.51 -40.32,0 -79.79,-3.65 -118.11,-10.58l0 -181.49c37.79,9.54 77.35,14.63 118.11,14.63 237.56,0 434.87,-172.19 473.99,-398.57l-87.94 0c-37.94,178.38 -196.35,312.21 -386.04,312.21 -82.51,0 -159.11,-25.33 -222.44,-68.62 0,99.33 4.57,193.87 4.57,295.48 -60.04,-21.05 -116.11,-50.55 -166.78,-87.07l0 -68.64 -2.96 -476.63zm387.62 -205.83c119.63,0 216.6,96.98 216.6,216.6 0,119.63 -96.97,216.6 -216.6,216.6 -119.63,0 -216.6,-96.98 -216.6,-216.6 0,-119.63 96.98,-216.6 216.6,-216.6z"/>
   <circle class="fil2" cx="1117.89" cy="1920" r="117.68"/>
  </g>
 </g>
</svg>
